<svg width="156" height="133" viewBox="0 0 156 133" fill="none" xmlns="http://www.w3.org/2000/svg">
<circle cx="22.5" cy="52.5" r="21.5" stroke="#57007B" stroke-width="2"/>
<path d="M29.0625 51.5625H17.9438L21.3469 47.475C21.506 47.2835 21.5826 47.0367 21.5597 46.7888C21.5369 46.5409 21.4165 46.3122 21.225 46.1531C21.0335 45.9939 20.7867 45.9174 20.5388 45.9402C20.2909 45.9631 20.0623 46.0835 19.9031 46.275L15.2156 51.9C15.1841 51.9447 15.1559 51.9917 15.1312 52.0406C15.1312 52.0875 15.1313 52.1156 15.0656 52.1625C15.0231 52.2699 15.0009 52.3844 15 52.5C15.0009 52.6155 15.0231 52.73 15.0656 52.8375C15.0656 52.8843 15.0656 52.9125 15.1312 52.9593C15.1559 53.0082 15.1841 53.0552 15.2156 53.1L19.9031 58.725C19.9913 58.8308 20.1017 58.9159 20.2264 58.9742C20.3512 59.0326 20.4873 59.0627 20.625 59.0625C20.844 59.0629 21.0563 58.9866 21.225 58.8468C21.3199 58.7681 21.3984 58.6715 21.4559 58.5624C21.5134 58.4533 21.5489 58.334 21.5602 58.2112C21.5715 58.0884 21.5585 57.9646 21.5219 57.8468C21.4853 57.7291 21.4258 57.6197 21.3469 57.525L17.9438 53.4375H29.0625C29.3111 53.4375 29.5496 53.3387 29.7254 53.1629C29.9012 52.9871 30 52.7486 30 52.5C30 52.2513 29.9012 52.0129 29.7254 51.837C29.5496 51.6612 29.3111 51.5625 29.0625 51.5625Z" fill="#57007B"/>
<g filter="url(#filter0_d_1_518)">
<circle cx="89.5" cy="52.5" r="22.5" fill="#57007B"/>
<circle cx="89.5" cy="52.5" r="21.5" stroke="#57007B" stroke-width="2"/>
</g>
<path d="M82.9375 51.5625H94.0562L90.6531 47.475C90.494 47.2835 90.4174 47.0367 90.4403 46.7888C90.4631 46.5409 90.5835 46.3122 90.775 46.1531C90.9665 45.9939 91.2133 45.9174 91.4612 45.9402C91.7091 45.9631 91.9377 46.0835 92.0969 46.275L96.7844 51.9C96.8159 51.9447 96.8441 51.9917 96.8688 52.0406C96.8688 52.0875 96.8687 52.1156 96.9344 52.1625C96.9769 52.2699 96.9991 52.3844 97 52.5C96.9991 52.6155 96.9769 52.73 96.9344 52.8375C96.9344 52.8843 96.9344 52.9125 96.8688 52.9593C96.8441 53.0082 96.8159 53.0552 96.7844 53.1L92.0969 58.725C92.0087 58.8308 91.8983 58.9159 91.7736 58.9742C91.6488 59.0326 91.5127 59.0627 91.375 59.0625C91.156 59.0629 90.9437 58.9866 90.775 58.8468C90.6801 58.7681 90.6016 58.6715 90.5441 58.5624C90.4866 58.4533 90.4511 58.334 90.4398 58.2112C90.4285 58.0884 90.4415 57.9646 90.4781 57.8468C90.5147 57.7291 90.5742 57.6197 90.6531 57.525L94.0562 53.4375H82.9375C82.6889 53.4375 82.4504 53.3387 82.2746 53.1629C82.0988 52.9871 82 52.7486 82 52.5C82 52.2513 82.0988 52.0129 82.2746 51.837C82.4504 51.6612 82.6889 51.5625 82.9375 51.5625Z" fill="white"/>
<defs>
<filter id="filter0_d_1_518" x="23" y="0" width="133" height="133" filterUnits="userSpaceOnUse" color-interpolation-filters="sRGB">
<feFlood flood-opacity="0" result="BackgroundImageFix"/>
<feColorMatrix in="SourceAlpha" type="matrix" values="0 0 0 0 0 0 0 0 0 0 0 0 0 0 0 0 0 0 127 0" result="hardAlpha"/>
<feOffset dy="14"/>
<feGaussianBlur stdDeviation="22"/>
<feColorMatrix type="matrix" values="0 0 0 0 0.0561111 0 0 0 0 0.0777333 0 0 0 0 0.133333 0 0 0 0.08 0"/>
<feBlend mode="normal" in2="BackgroundImageFix" result="effect1_dropShadow_1_518"/>
<feBlend mode="normal" in="SourceGraphic" in2="effect1_dropShadow_1_518" result="shape"/>
</filter>
</defs>
</svg>
