<svg width="212" height="25" viewBox="0 0 212 25" fill="none" xmlns="http://www.w3.org/2000/svg">
<path d="M7.625 9.42045C7.56439 8.88258 7.31439 8.46591 6.875 8.17045C6.43561 7.87121 5.88258 7.72159 5.21591 7.72159C4.73864 7.72159 4.32576 7.79735 3.97727 7.94886C3.62879 8.09659 3.35795 8.30114 3.16477 8.5625C2.97538 8.82008 2.88068 9.11364 2.88068 9.44318C2.88068 9.7197 2.94508 9.95833 3.07386 10.1591C3.20644 10.3598 3.37879 10.5284 3.59091 10.6648C3.80682 10.7973 4.03788 10.9091 4.28409 11C4.5303 11.0871 4.76705 11.1591 4.99432 11.2159L6.13068 11.5114C6.50189 11.6023 6.88258 11.7254 7.27273 11.8807C7.66288 12.036 8.02462 12.2405 8.35795 12.4943C8.69129 12.7481 8.96023 13.0625 9.16477 13.4375C9.37311 13.8125 9.47727 14.2614 9.47727 14.7841C9.47727 15.4432 9.30682 16.0284 8.96591 16.5398C8.62879 17.0511 8.13826 17.4545 7.49432 17.75C6.85417 18.0455 6.07955 18.1932 5.17045 18.1932C4.29924 18.1932 3.54545 18.0549 2.90909 17.7784C2.27273 17.5019 1.77462 17.1098 1.41477 16.6023C1.05492 16.0909 0.856061 15.4848 0.818182 14.7841H2.57955C2.61364 15.2045 2.75 15.5549 2.98864 15.8352C3.23106 16.1117 3.53977 16.3182 3.91477 16.4545C4.29356 16.5871 4.70833 16.6534 5.15909 16.6534C5.6553 16.6534 6.09659 16.5758 6.48295 16.4205C6.87311 16.2614 7.17992 16.0417 7.40341 15.7614C7.62689 15.4773 7.73864 15.1458 7.73864 14.767C7.73864 14.4223 7.64015 14.1402 7.44318 13.9205C7.25 13.7008 6.98674 13.5189 6.65341 13.375C6.32386 13.2311 5.95076 13.1042 5.53409 12.9943L4.15909 12.6193C3.22727 12.3655 2.48864 11.9924 1.94318 11.5C1.40152 11.0076 1.13068 10.3561 1.13068 9.54545C1.13068 8.875 1.3125 8.28977 1.67614 7.78977C2.03977 7.28977 2.5322 6.90151 3.15341 6.625C3.77462 6.3447 4.47538 6.20455 5.25568 6.20455C6.04356 6.20455 6.73864 6.3428 7.34091 6.61932C7.94697 6.89583 8.42424 7.27652 8.77273 7.76136C9.12121 8.24242 9.30303 8.79545 9.31818 9.42045H7.625ZM15.2003 18.1761C14.3404 18.1761 13.5999 17.9924 12.9787 17.625C12.3613 17.2538 11.884 16.733 11.5469 16.0625C11.2135 15.3883 11.0469 14.5985 11.0469 13.6932C11.0469 12.7992 11.2135 12.0114 11.5469 11.3295C11.884 10.6477 12.3537 10.1155 12.956 9.73295C13.562 9.35038 14.2704 9.15909 15.081 9.15909C15.5734 9.15909 16.0507 9.24053 16.5128 9.40341C16.9749 9.56629 17.3897 9.82197 17.7571 10.1705C18.1245 10.5189 18.4143 10.9716 18.6264 11.5284C18.8385 12.0814 18.9446 12.7538 18.9446 13.5455V14.1477H12.0071V12.875H17.2798C17.2798 12.428 17.1889 12.0322 17.0071 11.6875C16.8253 11.339 16.5696 11.0644 16.2401 10.8636C15.9143 10.6629 15.5317 10.5625 15.0923 10.5625C14.6151 10.5625 14.1984 10.6799 13.8423 10.9148C13.4901 11.1458 13.2173 11.4489 13.0241 11.8239C12.8348 12.1951 12.7401 12.5985 12.7401 13.0341V14.0284C12.7401 14.6117 12.8423 15.108 13.0469 15.517C13.2552 15.9261 13.545 16.2386 13.9162 16.4545C14.2874 16.6667 14.7211 16.7727 15.2173 16.7727C15.5393 16.7727 15.8329 16.7273 16.098 16.6364C16.3632 16.5417 16.5923 16.4015 16.7855 16.2159C16.9787 16.0303 17.1264 15.8011 17.2287 15.5284L18.8366 15.8182C18.7079 16.2917 18.4768 16.7064 18.1435 17.0625C17.8139 17.4148 17.3991 17.6894 16.8991 17.8864C16.4029 18.0795 15.8366 18.1761 15.2003 18.1761ZM24.5909 18.1761C23.7311 18.1761 22.9905 17.9924 22.3693 17.625C21.7519 17.2538 21.2746 16.733 20.9375 16.0625C20.6042 15.3883 20.4375 14.5985 20.4375 13.6932C20.4375 12.7992 20.6042 12.0114 20.9375 11.3295C21.2746 10.6477 21.7443 10.1155 22.3466 9.73295C22.9527 9.35038 23.661 9.15909 24.4716 9.15909C24.964 9.15909 25.4413 9.24053 25.9034 9.40341C26.3655 9.56629 26.7803 9.82197 27.1477 10.1705C27.5152 10.5189 27.8049 10.9716 28.017 11.5284C28.2292 12.0814 28.3352 12.7538 28.3352 13.5455V14.1477H21.3977V12.875H26.6705C26.6705 12.428 26.5795 12.0322 26.3977 11.6875C26.2159 11.339 25.9602 11.0644 25.6307 10.8636C25.3049 10.6629 24.9223 10.5625 24.483 10.5625C24.0057 10.5625 23.589 10.6799 23.233 10.9148C22.8807 11.1458 22.608 11.4489 22.4148 11.8239C22.2254 12.1951 22.1307 12.5985 22.1307 13.0341V14.0284C22.1307 14.6117 22.233 15.108 22.4375 15.517C22.6458 15.9261 22.9356 16.2386 23.3068 16.4545C23.678 16.6667 24.1117 16.7727 24.608 16.7727C24.9299 16.7727 25.2235 16.7273 25.4886 16.6364C25.7538 16.5417 25.983 16.4015 26.1761 16.2159C26.3693 16.0303 26.517 15.8011 26.6193 15.5284L28.2273 15.8182C28.0985 16.2917 27.8674 16.7064 27.5341 17.0625C27.2045 17.4148 26.7898 17.6894 26.2898 17.8864C25.7936 18.0795 25.2273 18.1761 24.5909 18.1761ZM34.4545 18V9.27273H36.0852V10.6932H36.1932C36.375 10.2121 36.6723 9.83712 37.0852 9.56818C37.4981 9.29545 37.9924 9.15909 38.5682 9.15909C39.1515 9.15909 39.6402 9.29545 40.0341 9.56818C40.4318 9.84091 40.7254 10.2159 40.9148 10.6932H41.0057C41.214 10.2273 41.5455 9.85606 42 9.57955C42.4545 9.29924 42.9962 9.15909 43.625 9.15909C44.4167 9.15909 45.0625 9.4072 45.5625 9.90341C46.0663 10.3996 46.3182 11.1477 46.3182 12.1477V18H44.6193V12.3068C44.6193 11.7159 44.4583 11.2879 44.1364 11.0227C43.8144 10.7576 43.4299 10.625 42.983 10.625C42.4299 10.625 42 10.7955 41.6932 11.1364C41.3864 11.4735 41.233 11.9072 41.233 12.4375V18H39.5398V12.1989C39.5398 11.7254 39.392 11.3447 39.0966 11.0568C38.8011 10.7689 38.4167 10.625 37.9432 10.625C37.6212 10.625 37.3239 10.7102 37.0511 10.8807C36.7822 11.0473 36.5644 11.2803 36.3977 11.5795C36.2348 11.8788 36.1534 12.2254 36.1534 12.6193V18H34.4545ZM52.2713 18.1761C51.4531 18.1761 50.7391 17.9886 50.1293 17.6136C49.5194 17.2386 49.0459 16.714 48.7088 16.0398C48.3717 15.3655 48.2031 14.5777 48.2031 13.6761C48.2031 12.7708 48.3717 11.9792 48.7088 11.3011C49.0459 10.6231 49.5194 10.0966 50.1293 9.72159C50.7391 9.34659 51.4531 9.15909 52.2713 9.15909C53.0895 9.15909 53.8035 9.34659 54.4134 9.72159C55.0232 10.0966 55.4967 10.6231 55.8338 11.3011C56.1709 11.9792 56.3395 12.7708 56.3395 13.6761C56.3395 14.5777 56.1709 15.3655 55.8338 16.0398C55.4967 16.714 55.0232 17.2386 54.4134 17.6136C53.8035 17.9886 53.0895 18.1761 52.2713 18.1761ZM52.277 16.75C52.8073 16.75 53.2467 16.6098 53.5952 16.3295C53.9437 16.0492 54.2012 15.6761 54.3679 15.2102C54.5384 14.7443 54.6236 14.2311 54.6236 13.6705C54.6236 13.1136 54.5384 12.6023 54.3679 12.1364C54.2012 11.6667 53.9437 11.2898 53.5952 11.0057C53.2467 10.7216 52.8073 10.5795 52.277 10.5795C51.7429 10.5795 51.2997 10.7216 50.9474 11.0057C50.599 11.2898 50.3395 11.6667 50.169 12.1364C50.0024 12.6023 49.919 13.1136 49.919 13.6705C49.919 14.2311 50.0024 14.7443 50.169 15.2102C50.3395 15.6761 50.599 16.0492 50.9474 16.3295C51.2997 16.6098 51.7429 16.75 52.277 16.75ZM58.2358 18V9.27273H59.8778V10.6591H59.9688C60.1278 10.1894 60.4081 9.82008 60.8097 9.55114C61.215 9.27841 61.6733 9.14205 62.1847 9.14205C62.2907 9.14205 62.4157 9.14583 62.5597 9.15341C62.7074 9.16098 62.8229 9.17045 62.9062 9.18182V10.8068C62.8381 10.7879 62.7169 10.767 62.5426 10.7443C62.3684 10.7178 62.1941 10.7045 62.0199 10.7045C61.6184 10.7045 61.2604 10.7898 60.946 10.9602C60.6354 11.1269 60.3892 11.3598 60.2074 11.6591C60.0256 11.9545 59.9347 12.2917 59.9347 12.6705V18H58.2358ZM67.8253 18.1761C66.9654 18.1761 66.2249 17.9924 65.6037 17.625C64.9863 17.2538 64.509 16.733 64.1719 16.0625C63.8385 15.3883 63.6719 14.5985 63.6719 13.6932C63.6719 12.7992 63.8385 12.0114 64.1719 11.3295C64.509 10.6477 64.9787 10.1155 65.581 9.73295C66.187 9.35038 66.8954 9.15909 67.706 9.15909C68.1984 9.15909 68.6757 9.24053 69.1378 9.40341C69.5999 9.56629 70.0147 9.82197 70.3821 10.1705C70.7495 10.5189 71.0393 10.9716 71.2514 11.5284C71.4635 12.0814 71.5696 12.7538 71.5696 13.5455V14.1477H64.6321V12.875H69.9048C69.9048 12.428 69.8139 12.0322 69.6321 11.6875C69.4503 11.339 69.1946 11.0644 68.8651 10.8636C68.5393 10.6629 68.1567 10.5625 67.7173 10.5625C67.2401 10.5625 66.8234 10.6799 66.4673 10.9148C66.1151 11.1458 65.8423 11.4489 65.6491 11.8239C65.4598 12.1951 65.3651 12.5985 65.3651 13.0341V14.0284C65.3651 14.6117 65.4673 15.108 65.6719 15.517C65.8802 15.9261 66.17 16.2386 66.5412 16.4545C66.9124 16.6667 67.3461 16.7727 67.8423 16.7727C68.1643 16.7727 68.4579 16.7273 68.723 16.6364C68.9882 16.5417 69.2173 16.4015 69.4105 16.2159C69.6037 16.0303 69.7514 15.8011 69.8537 15.5284L71.4616 15.8182C71.3329 16.2917 71.1018 16.7064 70.7685 17.0625C70.4389 17.4148 70.0241 17.6894 69.5241 17.8864C69.0279 18.0795 68.4616 18.1761 67.8253 18.1761ZM79.581 6.36364V18H77.8253V6.36364H79.581ZM83.7003 12.8182V18H82.0014V9.27273H83.6321V10.6932H83.7401C83.9408 10.2311 84.2552 9.85985 84.6832 9.57955C85.1151 9.29924 85.6586 9.15909 86.3139 9.15909C86.9086 9.15909 87.4295 9.28409 87.8764 9.53409C88.3234 9.7803 88.67 10.1477 88.9162 10.6364C89.1624 11.125 89.2855 11.7292 89.2855 12.4489V18H87.5866V12.6534C87.5866 12.0208 87.4219 11.5265 87.0923 11.1705C86.7628 10.8106 86.3101 10.6307 85.7344 10.6307C85.3404 10.6307 84.9901 10.7159 84.6832 10.8864C84.3802 11.0568 84.1397 11.3068 83.9616 11.6364C83.7874 11.9621 83.7003 12.3561 83.7003 12.8182ZM95.7173 9.27273V10.6364H90.7855V9.27273H95.7173ZM92.1378 18V8.26136C92.1378 7.71591 92.2571 7.26326 92.4957 6.90341C92.7344 6.53977 93.0507 6.26894 93.4446 6.09091C93.8385 5.90909 94.2666 5.81818 94.7287 5.81818C95.0696 5.81818 95.3613 5.84659 95.6037 5.90341C95.8461 5.95644 96.026 6.00568 96.1435 6.05114L95.7457 7.42614C95.6662 7.40341 95.5639 7.37689 95.4389 7.34659C95.3139 7.3125 95.1624 7.29545 94.9844 7.29545C94.5715 7.29545 94.276 7.39773 94.098 7.60227C93.9238 7.80682 93.8366 8.10227 93.8366 8.48864V18H92.1378ZM100.803 18.1761C99.9844 18.1761 99.2704 17.9886 98.6605 17.6136C98.0507 17.2386 97.5772 16.714 97.2401 16.0398C96.9029 15.3655 96.7344 14.5777 96.7344 13.6761C96.7344 12.7708 96.9029 11.9792 97.2401 11.3011C97.5772 10.6231 98.0507 10.0966 98.6605 9.72159C99.2704 9.34659 99.9844 9.15909 100.803 9.15909C101.621 9.15909 102.335 9.34659 102.945 9.72159C103.554 10.0966 104.028 10.6231 104.365 11.3011C104.702 11.9792 104.871 12.7708 104.871 13.6761C104.871 14.5777 104.702 15.3655 104.365 16.0398C104.028 16.714 103.554 17.2386 102.945 17.6136C102.335 17.9886 101.621 18.1761 100.803 18.1761ZM100.808 16.75C101.339 16.75 101.778 16.6098 102.126 16.3295C102.475 16.0492 102.732 15.6761 102.899 15.2102C103.07 14.7443 103.155 14.2311 103.155 13.6705C103.155 13.1136 103.07 12.6023 102.899 12.1364C102.732 11.6667 102.475 11.2898 102.126 11.0057C101.778 10.7216 101.339 10.5795 100.808 10.5795C100.274 10.5795 99.831 10.7216 99.4787 11.0057C99.1302 11.2898 98.8707 11.6667 98.7003 12.1364C98.5336 12.6023 98.4503 13.1136 98.4503 13.6705C98.4503 14.2311 98.5336 14.7443 98.7003 15.2102C98.8707 15.6761 99.1302 16.0492 99.4787 16.3295C99.831 16.6098 100.274 16.75 100.808 16.75ZM106.767 18V9.27273H108.409V10.6591H108.5C108.659 10.1894 108.939 9.82008 109.341 9.55114C109.746 9.27841 110.205 9.14205 110.716 9.14205C110.822 9.14205 110.947 9.14583 111.091 9.15341C111.239 9.16098 111.354 9.17045 111.438 9.18182V10.8068C111.369 10.7879 111.248 10.767 111.074 10.7443C110.9 10.7178 110.725 10.7045 110.551 10.7045C110.15 10.7045 109.792 10.7898 109.477 10.9602C109.167 11.1269 108.92 11.3598 108.739 11.6591C108.557 11.9545 108.466 12.2917 108.466 12.6705V18H106.767ZM112.908 18V9.27273H114.538V10.6932H114.646C114.828 10.2121 115.125 9.83712 115.538 9.56818C115.951 9.29545 116.446 9.15909 117.021 9.15909C117.605 9.15909 118.093 9.29545 118.487 9.56818C118.885 9.84091 119.179 10.2159 119.368 10.6932H119.459C119.667 10.2273 119.999 9.85606 120.453 9.57955C120.908 9.29924 121.449 9.15909 122.078 9.15909C122.87 9.15909 123.516 9.4072 124.016 9.90341C124.519 10.3996 124.771 11.1477 124.771 12.1477V18H123.072V12.3068C123.072 11.7159 122.911 11.2879 122.589 11.0227C122.268 10.7576 121.883 10.625 121.436 10.625C120.883 10.625 120.453 10.7955 120.146 11.1364C119.839 11.4735 119.686 11.9072 119.686 12.4375V18H117.993V12.1989C117.993 11.7254 117.845 11.3447 117.55 11.0568C117.254 10.7689 116.87 10.625 116.396 10.625C116.074 10.625 115.777 10.7102 115.504 10.8807C115.235 11.0473 115.018 11.2803 114.851 11.5795C114.688 11.8788 114.607 12.2254 114.607 12.6193V18H112.908ZM129.588 18.1932C129.035 18.1932 128.535 18.0909 128.088 17.8864C127.641 17.678 127.287 17.3769 127.026 16.983C126.768 16.589 126.639 16.1061 126.639 15.5341C126.639 15.0417 126.734 14.6364 126.923 14.3182C127.113 14 127.368 13.7481 127.69 13.5625C128.012 13.3769 128.372 13.2367 128.77 13.142C129.168 13.0473 129.573 12.9754 129.986 12.9261C130.509 12.8655 130.933 12.8163 131.259 12.7784C131.584 12.7367 131.821 12.6705 131.969 12.5795C132.116 12.4886 132.19 12.3409 132.19 12.1364V12.0966C132.19 11.6004 132.05 11.2159 131.77 10.9432C131.493 10.6705 131.08 10.5341 130.531 10.5341C129.959 10.5341 129.509 10.661 129.179 10.9148C128.853 11.1648 128.628 11.4432 128.503 11.75L126.906 11.3864C127.096 10.8561 127.372 10.428 127.736 10.1023C128.103 9.77273 128.526 9.53409 129.003 9.38636C129.48 9.23485 129.982 9.15909 130.509 9.15909C130.857 9.15909 131.226 9.20076 131.616 9.28409C132.01 9.36364 132.378 9.51136 132.719 9.72727C133.063 9.94318 133.346 10.2519 133.565 10.6534C133.785 11.0511 133.895 11.5682 133.895 12.2045V18H132.236V16.8068H132.168C132.058 17.0265 131.893 17.2424 131.673 17.4545C131.454 17.6667 131.171 17.8428 130.827 17.983C130.482 18.1231 130.069 18.1932 129.588 18.1932ZM129.957 16.8295C130.427 16.8295 130.829 16.7367 131.162 16.5511C131.499 16.3655 131.755 16.1231 131.929 15.8239C132.107 15.5208 132.196 15.197 132.196 14.8523V13.7273C132.135 13.7879 132.018 13.8447 131.844 13.8977C131.673 13.947 131.478 13.9905 131.259 14.0284C131.039 14.0625 130.825 14.0947 130.616 14.125C130.408 14.1515 130.234 14.1742 130.094 14.1932C129.764 14.2348 129.463 14.3049 129.19 14.4034C128.921 14.5019 128.705 14.6439 128.543 14.8295C128.384 15.0114 128.304 15.2538 128.304 15.5568C128.304 15.9773 128.459 16.2955 128.77 16.5114C129.08 16.7235 129.476 16.8295 129.957 16.8295ZM140.232 9.27273V10.6364H135.464V9.27273H140.232ZM136.743 7.18182H138.442V15.4375C138.442 15.767 138.491 16.0152 138.589 16.1818C138.688 16.3447 138.815 16.4564 138.97 16.517C139.129 16.5739 139.302 16.6023 139.487 16.6023C139.624 16.6023 139.743 16.5928 139.845 16.5739C139.947 16.5549 140.027 16.5398 140.084 16.5284L140.391 17.9318C140.292 17.9697 140.152 18.0076 139.97 18.0455C139.788 18.0871 139.561 18.1098 139.288 18.1136C138.841 18.1212 138.425 18.0417 138.038 17.875C137.652 17.7083 137.339 17.4508 137.101 17.1023C136.862 16.7538 136.743 16.3163 136.743 15.7898V7.18182ZM142.111 18V9.27273H143.81V18H142.111ZM142.969 7.92614C142.673 7.92614 142.42 7.82765 142.207 7.63068C141.999 7.42992 141.895 7.19129 141.895 6.91477C141.895 6.63447 141.999 6.39583 142.207 6.19886C142.42 5.99811 142.673 5.89773 142.969 5.89773C143.264 5.89773 143.516 5.99811 143.724 6.19886C143.937 6.39583 144.043 6.63447 144.043 6.91477C144.043 7.19129 143.937 7.42992 143.724 7.63068C143.516 7.82765 143.264 7.92614 142.969 7.92614ZM149.771 18.1761C148.953 18.1761 148.239 17.9886 147.629 17.6136C147.019 17.2386 146.546 16.714 146.209 16.0398C145.872 15.3655 145.703 14.5777 145.703 13.6761C145.703 12.7708 145.872 11.9792 146.209 11.3011C146.546 10.6231 147.019 10.0966 147.629 9.72159C148.239 9.34659 148.953 9.15909 149.771 9.15909C150.589 9.15909 151.304 9.34659 151.913 9.72159C152.523 10.0966 152.997 10.6231 153.334 11.3011C153.671 11.9792 153.839 12.7708 153.839 13.6761C153.839 14.5777 153.671 15.3655 153.334 16.0398C152.997 16.714 152.523 17.2386 151.913 17.6136C151.304 17.9886 150.589 18.1761 149.771 18.1761ZM149.777 16.75C150.307 16.75 150.747 16.6098 151.095 16.3295C151.444 16.0492 151.701 15.6761 151.868 15.2102C152.038 14.7443 152.124 14.2311 152.124 13.6705C152.124 13.1136 152.038 12.6023 151.868 12.1364C151.701 11.6667 151.444 11.2898 151.095 11.0057C150.747 10.7216 150.307 10.5795 149.777 10.5795C149.243 10.5795 148.8 10.7216 148.447 11.0057C148.099 11.2898 147.839 11.6667 147.669 12.1364C147.502 12.6023 147.419 13.1136 147.419 13.6705C147.419 14.2311 147.502 14.7443 147.669 15.2102C147.839 15.6761 148.099 16.0492 148.447 16.3295C148.8 16.6098 149.243 16.75 149.777 16.75ZM157.435 12.8182V18H155.736V9.27273H157.366V10.6932H157.474C157.675 10.2311 157.99 9.85985 158.418 9.57955C158.849 9.29924 159.393 9.15909 160.048 9.15909C160.643 9.15909 161.164 9.28409 161.611 9.53409C162.058 9.7803 162.404 10.1477 162.651 10.6364C162.897 11.125 163.02 11.7292 163.02 12.4489V18H161.321V12.6534C161.321 12.0208 161.156 11.5265 160.827 11.1705C160.497 10.8106 160.045 10.6307 159.469 10.6307C159.075 10.6307 158.724 10.7159 158.418 10.8864C158.115 11.0568 157.874 11.3068 157.696 11.6364C157.522 11.9621 157.435 12.3561 157.435 12.8182ZM171.838 11.4034L170.298 11.6761C170.234 11.4792 170.132 11.2917 169.991 11.1136C169.855 10.9356 169.67 10.7898 169.435 10.6761C169.2 10.5625 168.906 10.5057 168.554 10.5057C168.073 10.5057 167.671 10.6136 167.349 10.8295C167.027 11.0417 166.866 11.3163 166.866 11.6534C166.866 11.9451 166.974 12.1799 167.19 12.358C167.406 12.536 167.755 12.6818 168.236 12.7955L169.622 13.1136C170.425 13.2992 171.024 13.5852 171.418 13.9716C171.812 14.358 172.009 14.8598 172.009 15.4773C172.009 16 171.857 16.4659 171.554 16.875C171.255 17.2803 170.836 17.5985 170.298 17.8295C169.764 18.0606 169.145 18.1761 168.44 18.1761C167.463 18.1761 166.666 17.9678 166.048 17.5511C165.431 17.1307 165.052 16.5341 164.912 15.7614L166.554 15.5114C166.656 15.9394 166.866 16.2633 167.185 16.483C167.503 16.6989 167.918 16.8068 168.429 16.8068C168.986 16.8068 169.431 16.6913 169.764 16.4602C170.098 16.2254 170.264 15.9394 170.264 15.6023C170.264 15.3295 170.162 15.1004 169.957 14.9148C169.757 14.7292 169.448 14.589 169.031 14.4943L167.554 14.1705C166.74 13.9848 166.137 13.6894 165.747 13.2841C165.361 12.8788 165.168 12.3655 165.168 11.7443C165.168 11.2292 165.312 10.7784 165.599 10.392C165.887 10.0057 166.285 9.70455 166.793 9.48864C167.3 9.26894 167.882 9.15909 168.537 9.15909C169.48 9.15909 170.223 9.36364 170.764 9.77273C171.306 10.178 171.664 10.7216 171.838 11.4034Z" fill="#57007B"/>
<g clip-path="url(#clip0_1_393)">
<path d="M204.172 11.4999L198.808 6.13592L200.222 4.72192L208 12.4999L200.222 20.2779L198.808 18.8639L204.172 13.4999H192V11.4999H204.172Z" fill="#57007B"/>
</g>
<defs>
<clipPath id="clip0_1_393">
<rect width="24" height="24" fill="white" transform="translate(188 0.5)"/>
</clipPath>
</defs>
</svg>
